<svg xmlns="http://www.w3.org/2000/svg" width="1280" height="720" viewBox="0 0 1280 720">
    <g>
        <rect x="0" y="0" width="1280" height="720" fill="#fafae0" />
        <rect x="0" y="0" width="256" height="144" fill="#c0f0c0" />
        <rect x="1024" y="0" width="256" height="144" fill="#f0c0c0" />
        <rect x="320" y="180" width="640" height="360" fill="#f0f0c0" />

        <circle cx="640" cy="360" r="25" fill="#f55555" />

        <circle cx="128" cy="72" r="10" fill="#55cc55" />
        <circle cx="128" cy="216" r="10" fill="#55cc55" />
        <circle cx="128" cy="360" r="10" fill="#55cc55" />
        <circle cx="128" cy="504" r="10" fill="#55cc55" />
        <circle cx="128" cy="648" r="10" fill="#55cc55" />
        <circle cx="384" cy="72" r="10" fill="#55cc55" />
        <circle cx="384" cy="216" r="10" fill="#55cc55" />
        <circle cx="384" cy="360" r="10" fill="#55cc55" />
        <circle cx="384" cy="504" r="10" fill="#55cc55" />
        <circle cx="384" cy="648" r="10" fill="#55cc55" />
        <circle cx="640" cy="72" r="10" fill="#55cc55" />
        <circle cx="640" cy="216" r="10" fill="#55cc55" />
        <circle cx="640" cy="360" r="10" fill="#55cc55" />
        <circle cx="640" cy="504" r="10" fill="#55cc55" />
        <circle cx="640" cy="648" r="10" fill="#55cc55" />
        <circle cx="896" cy="72" r="10" fill="#55cc55" />
        <circle cx="896" cy="216" r="10" fill="#55cc55" />
        <circle cx="896" cy="360" r="10" fill="#55cc55" />
        <circle cx="896" cy="504" r="10" fill="#55cc55" />
        <circle cx="896" cy="648" r="10" fill="#55cc55" />
        <circle cx="1152" cy="72" r="10" fill="#55cc55" />
        <circle cx="1152" cy="216" r="10" fill="#55cc55" />
        <circle cx="1152" cy="360" r="10" fill="#55cc55" />
        <circle cx="1152" cy="504" r="10" fill="#55cc55" />
        <circle cx="1152" cy="648" r="10" fill="#55cc55" />
    </g>
</svg>
